<svg width="16" height="16" viewBox="0 0 16 16" fill="none" xmlns="http://www.w3.org/2000/svg">
<g id="home_repair_service">
<mask id="mask0_2_899" style="mask-type:alpha" maskUnits="userSpaceOnUse" x="0" y="0" width="16" height="16">
<rect id="Bounding box" width="16" height="16" fill="#D9D9D9"/>
</mask>
<g mask="url(#mask0_2_899)">
<path id="home_repair_service_2" d="M1.33331 13.3333V6.66667C1.33331 6.30001 1.46387 5.98612 1.72498 5.72501C1.98609 5.46389 2.29998 5.33334 2.66665 5.33334H4.66665V4.00001C4.66665 3.63334 4.7972 3.31945 5.05831 3.05834C5.31942 2.79723 5.63331 2.66667 5.99998 2.66667H9.99998C10.3666 2.66667 10.6805 2.79723 10.9416 3.05834C11.2028 3.31945 11.3333 3.63334 11.3333 4.00001V5.33334H13.3333C13.7 5.33334 14.0139 5.46389 14.275 5.72501C14.5361 5.98612 14.6666 6.30001 14.6666 6.66667V13.3333H1.33331ZM5.33331 10V10.6667H3.99998V10H2.66665V12H13.3333V10H12V10.6667H10.6666V10H5.33331ZM2.66665 6.66667V8.66667H3.99998V8.00001H5.33331V8.66667H10.6666V8.00001H12V8.66667H13.3333V6.66667H2.66665ZM5.99998 5.33334H9.99998V4.00001H5.99998V5.33334Z" fill="#858585"/>
</g>
</g>
</svg>
