<svg width="12" height="16" viewBox="0 0 12 16" fill="none" xmlns="http://www.w3.org/2000/svg">
<path fill-rule="evenodd" clip-rule="evenodd" d="M7.68 3.60244C7.68 1.98994 7.125 0.00244141 7.125 0.00244141C10.0575 2.34994 12 5.95744 12 9.99994C12 13.3149 9.315 15.9999 6 15.9999C2.685 15.9999 0 13.3149 0 9.99994C0 7.46494 0.9075 5.13244 2.4225 3.33244L2.4 3.60244C2.4 5.14744 3.57 6.39994 5.1225 6.39994C6.6675 6.39994 7.68 5.14744 7.68 3.60244ZM3.36768 11.3951C3.36768 12.7001 4.44768 13.7501 5.78268 13.7501C7.77018 13.7501 9.38268 12.1376 9.38268 10.1501C9.38268 9.10762 9.23268 8.08762 8.94018 7.12012C8.17518 8.14762 6.80268 8.78512 5.47518 9.05512C4.15518 9.32512 3.36768 10.1801 3.36768 11.3951Z" fill="#C2410C"/>
</svg>
