<svg width="22" height="16" viewBox="0 0 22 16" fill="none" xmlns="http://www.w3.org/2000/svg">
<path fill-rule="evenodd" clip-rule="evenodd" d="M13.6749 1C13.6658 1 13.6567 1.00036 13.6489 1.00101L1.3646 1.00105C1.35565 1.00036 1.34657 1 1.33742 1C1.15109 1 1 1.15105 1 1.33742C1 1.34657 1.0004 1.35565 1.00101 1.36343L1.00109 12.773L1.00046 12.7831C1.00018 12.7888 1.00004 12.7945 1.00004 12.8002C1.00004 12.9865 1.15109 13.1376 1.33746 13.1376C1.34661 13.1376 1.35569 13.1372 1.36347 13.1366H3.46316L3.46509 13.1504C3.65207 14.2468 4.60683 15.0814 5.75655 15.0814C6.90627 15.0814 7.86104 14.2467 8.04995 13.1366H14.8864L14.8883 13.1504C15.0753 14.2468 16.0301 15.0814 17.1798 15.0814C18.3295 15.0814 19.2843 14.2467 19.4732 13.1366L20.6343 13.1365C20.6433 13.1372 20.6523 13.1376 20.6615 13.1376C20.8478 13.1376 20.9989 12.9865 20.9989 12.8002C20.9989 12.791 20.9985 12.7819 20.9979 12.7742L20.9977 7.3264C20.9992 7.31478 21 7.30301 21 7.29099C21 7.2168 20.9706 7.14946 20.9229 7.10006L19.0357 4.01304L19.035 4.01215C18.968 3.92602 18.8653 3.869 18.7482 3.86304H14.0114L14.0113 1.3646C14.012 1.35565 14.0124 1.34657 14.0124 1.33742C14.0124 1.15109 13.8613 1 13.6749 1ZM18.7731 12.7742C18.7731 13.6508 18.0625 14.3615 17.1859 14.3615C16.3093 14.3615 15.5986 13.6508 15.5986 12.7742C15.5986 11.8976 16.3093 11.1869 17.1859 11.1869C18.0625 11.1869 18.7731 11.8976 18.7731 12.7742ZM14.0863 12.4118H14.8862C15.0751 11.3017 16.0299 10.467 17.1796 10.467C18.3293 10.467 19.2841 11.3016 19.4711 12.398L19.473 12.4118H20.2729V7.68753H14.0238L14.0863 12.4118ZM20.0479 6.9626H14.0863L14.0863 4.63796H18.5981L20.0479 6.9626ZM5.76264 14.3615C6.63926 14.3615 7.34991 13.6508 7.34991 12.7742C7.34991 11.8976 6.63926 11.1869 5.76264 11.1869C4.88602 11.1869 4.17538 11.8976 4.17538 12.7742L4.17529 12.7868C4.17529 13.6565 4.88034 14.3615 5.75006 14.3615L5.76256 14.3615H5.76264ZM3.50045 12.4118H1.72573V1.72593H13.3614V12.4118H8.08725L8.08531 12.398C7.89833 11.3016 6.94357 10.467 5.79385 10.467C4.64413 10.467 3.68937 11.3017 3.50045 12.4118Z" fill="black"/>
<path d="M13.6489 1.00101L13.6964 1.57404L13.6727 1.57601L13.6489 1.57601L13.6489 1.00101ZM1.3646 1.00105L1.3646 1.57605L1.34261 1.57605L1.32069 1.57437L1.3646 1.00105ZM1.00101 1.36343L1.57428 1.31889L1.57601 1.34112V1.36342L1.00101 1.36343ZM1.00109 12.773L1.57609 12.773V12.791L1.57497 12.8089L1.00109 12.773ZM1.00046 12.7831L0.426077 12.7552L0.42658 12.7472L1.00046 12.7831ZM1.36347 13.1366L1.31893 12.5633L1.34117 12.5616H1.36347V13.1366ZM3.46316 13.1366V12.5616H3.96294L4.03255 13.0565L3.46316 13.1366ZM3.46509 13.1504L2.89827 13.247L2.89686 13.2388L2.89569 13.2305L3.46509 13.1504ZM8.04995 13.1366L7.4831 13.0402L7.56453 12.5616H8.04995V13.1366ZM14.8864 13.1366V12.5616H15.3861L15.4558 13.0565L14.8864 13.1366ZM14.8883 13.1504L14.3215 13.247L14.3201 13.2388L14.3189 13.2305L14.8883 13.1504ZM19.4732 13.1366L18.9063 13.0402L18.9878 12.5617L19.4731 12.5616L19.4732 13.1366ZM20.6343 13.1365L20.6343 12.5615L20.6563 12.5615L20.6782 12.5632L20.6343 13.1365ZM20.9979 12.7742L20.4246 12.8187L20.4229 12.7965L20.4229 12.7742L20.9979 12.7742ZM20.9977 7.3264L20.4227 7.32641L20.4227 7.28962L20.4274 7.25313L20.9977 7.3264ZM20.9229 7.10006L20.5093 7.4995L20.4653 7.45397L20.4323 7.39998L20.9229 7.10006ZM19.0357 4.01304L19.5007 3.67479L19.5142 3.69344L19.5263 3.71312L19.0357 4.01304ZM19.035 4.01215L19.4887 3.65891L19.4945 3.66632L19.5 3.67391L19.035 4.01215ZM18.7482 3.86304V3.28804H18.7629L18.7775 3.28878L18.7482 3.86304ZM14.0114 3.86304V4.43804H13.4364L13.4364 3.86305L14.0114 3.86304ZM14.0113 1.3646L13.4363 1.36462L13.4363 1.34262L13.438 1.32068L14.0113 1.3646ZM14.8862 12.4118L15.4531 12.5082L15.3716 12.9868H14.8862V12.4118ZM14.0863 12.4118V12.9868H13.5189L13.5114 12.4194L14.0863 12.4118ZM19.4711 12.398L20.0379 12.3014L20.0393 12.3096L20.0405 12.3179L19.4711 12.398ZM19.473 12.4118V12.9868H18.9733L18.9036 12.4919L19.473 12.4118ZM20.2729 12.4118H20.8479V12.9868H20.2729V12.4118ZM20.2729 7.68753V7.11253H20.8479V7.68753H20.2729ZM14.0238 7.68753L13.4489 7.69513L13.4412 7.11253H14.0238V7.68753ZM14.0863 6.9626V7.5376H13.5114L13.5113 6.96262L14.0863 6.9626ZM20.0479 6.9626L20.5358 6.65832L21.0842 7.5376H20.0479V6.9626ZM14.0863 4.63796L13.5113 4.63798L13.5112 4.06296H14.0863V4.63796ZM18.5981 4.63796V4.06296H18.9171L19.086 4.33368L18.5981 4.63796ZM4.17538 12.7742H4.75039L4.75036 12.7779L4.17538 12.7742ZM4.17529 12.7868H3.60028L3.60031 12.783L4.17529 12.7868ZM5.75006 14.3615L5.75375 14.9365H5.75006V14.3615ZM5.76256 14.3615L5.75887 13.7865H5.76256V14.3615ZM1.72573 12.4118V12.9868H1.15073V12.4118H1.72573ZM3.50045 12.4118L4.0673 12.5082L3.98587 12.9868H3.50045V12.4118ZM1.72573 1.72593H1.15073V1.15093H1.72573V1.72593ZM13.3614 1.72593V1.15093H13.9364V1.72593H13.3614ZM13.3614 12.4118H13.9364V12.9868H13.3614V12.4118ZM8.08725 12.4118V12.9868H7.58753L7.51786 12.4919L8.08725 12.4118ZM8.08531 12.398L8.65213 12.3014L8.65353 12.3096L8.65469 12.3179L8.08531 12.398ZM13.6014 0.427974C13.6267 0.425877 13.6517 0.425 13.6749 0.425V1.575C13.6778 1.575 13.6808 1.57494 13.6839 1.57482C13.6869 1.57471 13.6911 1.57449 13.6964 1.57404L13.6014 0.427974ZM1.3646 0.426048L13.6489 0.426008L13.6489 1.57601L1.3646 1.57605L1.3646 0.426048ZM1.33742 0.425C1.36176 0.425 1.38548 0.425964 1.4085 0.427727L1.32069 1.57437C1.32581 1.57476 1.33139 1.575 1.33742 1.575V0.425ZM0.424999 1.33742C0.424999 0.833438 0.833574 0.425 1.33742 0.425V1.575C1.46861 1.575 1.575 1.46866 1.575 1.33742H0.424999ZM0.427736 1.40797C0.426071 1.38654 0.424999 1.36256 0.424999 1.33742H1.575C1.575 1.33366 1.57492 1.33047 1.57481 1.32779C1.5747 1.32511 1.57454 1.32219 1.57428 1.31889L0.427736 1.40797ZM0.426088 12.773L0.426008 1.36343L1.57601 1.36342L1.57609 12.773L0.426088 12.773ZM0.42658 12.7472L0.427212 12.7371L1.57497 12.8089L1.57434 12.819L0.42658 12.7472ZM0.425039 12.8002C0.425039 12.7849 0.425421 12.7699 0.426134 12.7552L1.57478 12.811C1.57495 12.8076 1.57504 12.804 1.57504 12.8002H0.425039ZM1.33746 13.7126C0.833487 13.7126 0.425039 13.3041 0.425039 12.8002H1.57504C1.57504 12.669 1.46869 12.5626 1.33746 12.5626V13.7126ZM1.40801 13.7099C1.38653 13.7116 1.36256 13.7126 1.33746 13.7126V12.5626C1.33372 12.5626 1.33055 12.5627 1.32787 12.5628C1.32518 12.5629 1.32225 12.5631 1.31893 12.5633L1.40801 13.7099ZM3.46316 13.7116H1.36347V12.5616H3.46316V13.7116ZM2.89569 13.2305L2.89376 13.2167L4.03255 13.0565L4.03448 13.0703L2.89569 13.2305ZM5.75655 15.6564C4.32187 15.6564 3.13157 14.6151 2.89827 13.247L4.03191 13.0537C4.17256 13.8785 4.89179 14.5064 5.75655 14.5064V15.6564ZM8.6168 13.2331C8.38198 14.6129 7.19329 15.6564 5.75655 15.6564V14.5064C6.61926 14.5064 7.34009 13.8806 7.4831 13.0402L8.6168 13.2331ZM14.8864 13.7116H8.04995V12.5616H14.8864V13.7116ZM14.3189 13.2305L14.317 13.2168L15.4558 13.0565L15.4577 13.0702L14.3189 13.2305ZM17.1798 15.6564C15.7451 15.6564 14.5548 14.6151 14.3215 13.247L15.4551 13.0537C15.5958 13.8785 16.315 14.5064 17.1798 14.5064V15.6564ZM20.04 13.2331C19.8052 14.6129 18.6165 15.6564 17.1798 15.6564V14.5064C18.0425 14.5064 18.7633 13.8806 18.9063 13.0402L20.04 13.2331ZM20.6344 13.7115L19.4732 13.7116L19.4731 12.5616L20.6343 12.5615L20.6344 13.7115ZM20.6615 13.7126C20.6371 13.7126 20.6134 13.7116 20.5904 13.7099L20.6782 12.5632C20.6731 12.5628 20.6675 12.5626 20.6615 12.5626V13.7126ZM21.5739 12.8002C21.5739 13.3041 21.1653 13.7126 20.6615 13.7126V12.5626C20.5303 12.5626 20.4239 12.6689 20.4239 12.8002H21.5739ZM21.5712 12.7296C21.5728 12.7511 21.5739 12.7751 21.5739 12.8002H20.4239C20.4239 12.8039 20.424 12.8071 20.4241 12.8098C20.4242 12.8124 20.4244 12.8154 20.4246 12.8187L21.5712 12.7296ZM21.5727 7.32638L21.5729 12.7741L20.4229 12.7742L20.4227 7.32641L21.5727 7.32638ZM21.575 7.29099C21.575 7.32761 21.5727 7.36385 21.5681 7.39967L20.4274 7.25313C20.4258 7.26571 20.425 7.27841 20.425 7.29099H21.575ZM21.3365 6.70063C21.4836 6.85296 21.575 7.06194 21.575 7.29099H20.425C20.425 7.37166 20.4576 7.44596 20.5093 7.4995L21.3365 6.70063ZM19.5263 3.71312L21.4135 6.80015L20.4323 7.39998L18.5451 4.31295L19.5263 3.71312ZM19.5 3.67391L19.5007 3.67479L18.5707 4.35128L18.57 4.35039L19.5 3.67391ZM18.7775 3.28878C19.067 3.30354 19.3225 3.44542 19.4887 3.65891L18.5813 4.36539C18.6134 4.40662 18.6636 4.43447 18.7189 4.43729L18.7775 3.28878ZM14.0114 3.28804H18.7482V4.43804H14.0114V3.28804ZM14.5863 1.36458L14.5864 3.86302L13.4364 3.86305L13.4363 1.36462L14.5863 1.36458ZM14.5874 1.33742C14.5874 1.36173 14.5864 1.38546 14.5847 1.40851L13.438 1.32068C13.4376 1.32583 13.4374 1.33141 13.4374 1.33742H14.5874ZM13.6749 0.425C14.1788 0.425 14.5874 0.833481 14.5874 1.33742H13.4374C13.4374 1.4687 13.5438 1.575 13.6749 1.575V0.425ZM17.1859 13.7865C17.7449 13.7865 18.1981 13.3333 18.1981 12.7742H19.3481C19.3481 13.9684 18.3801 14.9365 17.1859 14.9365V13.7865ZM16.1736 12.7742C16.1736 13.3333 16.6268 13.7865 17.1859 13.7865V14.9365C15.9917 14.9365 15.0236 13.9684 15.0236 12.7742H16.1736ZM17.1859 11.7619C16.6268 11.7619 16.1736 12.2151 16.1736 12.7742H15.0236C15.0236 11.58 15.9917 10.6119 17.1859 10.6119V11.7619ZM18.1981 12.7742C18.1981 12.2151 17.7449 11.7619 17.1859 11.7619V10.6119C18.3801 10.6119 19.3481 11.58 19.3481 12.7742H18.1981ZM14.8862 12.9868H14.0863V11.8368H14.8862V12.9868ZM17.1796 11.042C16.317 11.042 15.5961 11.6679 15.4531 12.5082L14.3194 12.3153C14.5542 10.9355 15.7429 9.89197 17.1796 9.89197V11.042ZM18.9043 12.4947C18.7636 11.6699 18.0443 11.042 17.1796 11.042V9.89197C18.6143 9.89197 19.8046 10.9333 20.0379 12.3014L18.9043 12.4947ZM18.9036 12.4919L18.9017 12.4782L20.0405 12.3179L20.0424 12.3316L18.9036 12.4919ZM20.2729 12.9868H19.473V11.8368H20.2729V12.9868ZM20.8479 7.68753V12.4118H19.6979V7.68753H20.8479ZM14.0238 7.11253H20.2729V8.26253H14.0238V7.11253ZM13.5114 12.4194L13.4489 7.69513L14.5988 7.67992L14.6613 12.4042L13.5114 12.4194ZM14.0863 6.3876H20.0479V7.5376H14.0863V6.3876ZM14.6613 4.63794L14.6613 6.96258L13.5113 6.96262L13.5113 4.63798L14.6613 4.63794ZM18.5981 5.21296H14.0863V4.06296H18.5981V5.21296ZM19.56 7.26689L18.1102 4.94224L19.086 4.33368L20.5358 6.65832L19.56 7.26689ZM7.9249 12.7742C7.9249 13.9684 6.95682 14.9365 5.76264 14.9365V13.7865C6.32169 13.7865 6.77491 13.3333 6.77491 12.7742H7.9249ZM5.76264 10.6119C6.95682 10.6119 7.9249 11.58 7.9249 12.7742H6.77491C6.77491 12.2151 6.32169 11.7619 5.76264 11.7619V10.6119ZM3.60038 12.7742C3.60038 11.58 4.56846 10.6119 5.76264 10.6119V11.7619C5.20359 11.7619 4.75038 12.2151 4.75038 12.7742H3.60038ZM3.60031 12.783L3.60039 12.7705L4.75036 12.7779L4.75028 12.7905L3.60031 12.783ZM5.75006 14.9365C4.56277 14.9365 3.60029 13.9741 3.60029 12.7868H4.7503C4.7503 13.3389 5.1979 13.7865 5.75006 13.7865V14.9365ZM5.76624 14.9365L5.75375 14.9365L5.74638 13.7866L5.75887 13.7865L5.76624 14.9365ZM5.76264 14.9365H5.76256V13.7865H5.76264V14.9365ZM1.72573 11.8368H3.50045V12.9868H1.72573V11.8368ZM2.30073 1.72593V12.4118H1.15073V1.72593H2.30073ZM13.3614 2.30093H1.72573V1.15093H13.3614V2.30093ZM12.7864 12.4118V1.72593H13.9364V12.4118H12.7864ZM8.08725 11.8368H13.3614V12.9868H8.08725V11.8368ZM8.65469 12.3179L8.65663 12.3316L7.51786 12.4919L7.51593 12.4782L8.65469 12.3179ZM5.79385 9.89197C7.22853 9.89197 8.41883 10.9333 8.65213 12.3014L7.51849 12.4947C7.37784 11.6699 6.65861 11.042 5.79385 11.042V9.89197ZM2.9336 12.3153C3.16842 10.9355 4.35711 9.89197 5.79385 9.89197V11.042C4.93114 11.042 4.21032 11.6679 4.0673 12.5082L2.9336 12.3153Z" fill="black"/>
</svg>
