<?xml version="1.0" encoding="UTF-8"?>
<svg width="16px" height="8px" viewBox="0 0 16 8" version="1.1" xmlns="http://www.w3.org/2000/svg" xmlns:xlink="http://www.w3.org/1999/xlink">
    <!-- Generator: Sketch 56.3 (81716) - https://sketch.com -->
    <title>round-arrow_right_alt-24px</title>
    <desc>Created with Sketch.</desc>
    <g id="Page-1" stroke="none" stroke-width="1" fill="none" fill-rule="evenodd">
        <g id="Load-Board-GPS-Enabled" transform="translate(-101.000000, -91.000000)">
            <g id="Group-6" transform="translate(15.000000, 70.000000)">
                <g id="round-arrow_right_alt-24px" transform="translate(82.000000, 13.000000)">
                    <polygon id="Path" points="0 0 24 0 24 24 0 24"></polygon>
                    <path d="M16.01,11 L5,11 C4.45,11 4,11.45 4,12 C4,12.55 4.45,13 5,13 L16.01,13 L16.01,14.79 C16.01,15.24 16.55,15.46 16.86,15.14 L19.64,12.35 C19.83,12.15 19.83,11.84 19.64,11.64 L16.86,8.85 C16.55,8.53 16.01,8.76 16.01,9.2 L16.01,11 L16.01,11 Z" id="Path" fill="#BDBDBD" fill-rule="nonzero"></path>
                </g>
            </g>
        </g>
    </g>
</svg>