<svg width="34" height="34" viewBox="0 0 34 34" fill="none" xmlns="http://www.w3.org/2000/svg">
<rect width="34" height="34" rx="17" fill="black"/>
<path fill-rule="evenodd" clip-rule="evenodd" d="M20.5402 19.8342H21.3187L25.497 24.0297C25.901 24.4335 25.901 25.0934 25.497 25.4972C25.0929 25.9009 24.4327 25.9009 24.0287 25.4972L19.8405 21.3115V20.5334L19.5744 20.2577C18.1948 21.4395 16.3126 22.0501 14.3122 21.7153C11.5726 21.2524 9.38494 18.9675 9.04989 16.2098C8.53746 12.0439 12.0456 8.53773 16.2141 9.04986C18.9733 9.38471 21.2596 11.5711 21.7227 14.3091C22.0578 16.3083 21.4468 18.1894 20.2643 19.5682L20.5402 19.8342ZM10.9715 15.4023C10.9715 17.8546 12.9523 19.8342 15.406 19.8342C17.8598 19.8342 19.8405 17.8546 19.8405 15.4023C19.8405 12.9499 17.8598 10.9704 15.406 10.9704C12.9523 10.9704 10.9715 12.9499 10.9715 15.4023Z" fill="white"/>
</svg>
