<svg width="14" height="17" viewBox="0 0 14 17" fill="none" xmlns="http://www.w3.org/2000/svg">
<path fill-rule="evenodd" clip-rule="evenodd" d="M1.75001 0.75H12.25C12.6625 0.75 13 1.0875 13 1.5C13 1.9125 12.6625 2.25 12.25 2.25H1.75001C1.33751 2.25 1.00001 1.9125 1.00001 1.5C1.00001 1.0875 1.33751 0.75 1.75001 0.75ZM7.75001 9.75C7.75001 10.1625 7.41251 10.5 7.00001 10.5C6.58751 10.5 6.25001 10.1625 6.25001 9.75V6.75C6.25001 6.3375 6.58751 6 7.00001 6C7.41251 6 7.75001 6.3375 7.75001 6.75V9.75ZM12.2725 5.5425L11.215 4.485C10.0525 3.555 8.59001 3 7.00001 3C3.40001 3 0.340014 5.97 0.250014 9.57C0.152514 13.38 3.20501 16.5 7.00001 16.5C10.735 16.5 13.75 13.4775 13.75 9.75C13.75 8.16 13.195 6.6975 12.2725 5.5425ZM1.75001 9.75C1.75001 12.6525 4.09751 15 7.00001 15C9.90251 15 12.25 12.6525 12.25 9.75C12.25 6.8475 9.90251 4.5 7.00001 4.5C4.09751 4.5 1.75001 6.8475 1.75001 9.75Z" fill="black"/>
</svg>
